<svg xmlns="http://www.w3.org/2000/svg" width="256" height="256"><path fill="#1976D2" fill-opacity=".016" fill-rule="evenodd" d="M0 128.004v128.004l128.25-.254 128.25-.254.254-127.75L257.008 0H0zm.485.496c0 70.4.119 99.053.265 63.672s.146-92.98 0-128S.485 58.1.485 128.5"/><path fill="#1976D2" fill-opacity=".135" fill-rule="evenodd" d="M194.5 47.574c-1.65.859-17.359 16.189-34.908 34.066l-31.909 32.504-33.626-33.572C61.721 48.287 60.286 47 56.639 47c-7.218 0-11.848 7.766-8.534 14.316.608 1.201 15.568 16.696 33.244 34.434L113.488 128l-31.609 31.75c-17.384 17.462-32.344 32.863-33.244 34.223-5.366 8.114 3.845 18.587 12.347 14.037 1.018-.545 16.378-15.635 34.132-33.533l32.282-32.542 33.052 32.967c22.475 22.417 33.966 33.191 35.908 33.668 6.309 1.547 13.447-5.407 11.971-11.662-.326-1.382-14.69-16.584-33.691-35.657l-33.124-33.25 27.564-27.75c40.28-40.553 38.897-38.996 38.912-43.812.013-4.454-2.384-7.879-6.649-9.5-3.196-1.215-3.304-1.205-6.839.635"/><path fill="#1976D2" fill-opacity=".576" fill-rule="evenodd" d="M53.5 47.945c-3.673 1.504-5.955 5.01-5.955 9.152 0 3.838.847 4.784 33.472 37.42L114.489 128l-32.64 32.75c-17.951 18.012-33.174 33.804-33.829 35.093-3.4 6.695 5.465 15.522 12.171 12.119 1.27-.645 17.043-15.856 35.052-33.804l32.743-32.632 33.291 33.237C193.284 206.717 194.716 208 198.361 208c5.295 0 9.639-4.344 9.639-9.639 0-3.647-1.286-5.081-33.491-37.338l-33.492-33.544 33.063-33.063c30.878-30.878 33.1-33.335 33.617-37.191.488-3.64.192-4.489-2.495-7.177-2.326-2.326-3.947-3.048-6.841-3.048-3.647 0-5.081 1.286-37.34 33.493l-33.546 33.494-31.988-32.059C77.894 64.295 62.285 49.223 60.8 48.434c-3.009-1.598-4.368-1.689-7.3-.489"/><path fill="#1976D2" fill-opacity=".391" fill-rule="evenodd" d="M195.261 48.005c-1.231.507-16.701 15.563-34.378 33.459C143.206 99.359 128.236 114 127.616 114S111.644 99.15 93.5 81C61.751 49.24 60.369 48 56.71 48 51.328 48 48 51.493 48 57.142c0 4.223.074 4.306 33.198 37.526l33.197 33.295-33.197 33.413C48.299 194.488 48 194.826 48 198.94c0 5.563 3.362 9.06 8.71 9.06 3.659 0 5.05-1.249 37.283-33.493l33.482-33.493 33.012 32.928c21.816 21.759 33.952 33.157 35.782 33.606 6.154 1.508 12.893-5.046 11.178-10.871-.352-1.198-15.556-17.139-33.787-35.426l-33.147-33.249 24.048-24.251c33.176-33.456 41.818-42.545 42.687-44.894 2.332-6.3-5.601-13.481-11.987-10.852"/></svg>