<?xml version="1.0" encoding="UTF-8" standalone="no"?>
<!-- Created with Inkscape (http://www.inkscape.org/) -->

<svg
   width="215"
   height="215"
   viewBox="-10 -10 53.75 53.75"
   version="1.1"
   id="svg5"
   inkscape:version="1.2.2 (b0a8486541, 2022-12-01)"
   sodipodi:docname="dexif.svg"
   inkscape:export-filename="dexifw1000.png"
   inkscape:export-xdpi="446.51163"
   inkscape:export-ydpi="446.51163"
   xmlns:inkscape="http://www.inkscape.org/namespaces/inkscape"
   xmlns:sodipodi="http://sodipodi.sourceforge.net/DTD/sodipodi-0.dtd"
   xmlns="http://www.w3.org/2000/svg"
   xmlns:svg="http://www.w3.org/2000/svg">
  <sodipodi:namedview
     id="namedview7"
     pagecolor="#505050"
     bordercolor="#ffffff"
     borderopacity="1"
     inkscape:showpageshadow="false"
     inkscape:pageopacity="0"
     inkscape:pagecheckerboard="1"
     inkscape:deskcolor="#505050"
     inkscape:document-units="px"
     showgrid="false"
     inkscape:zoom="1.9589603"
     inkscape:cx="60.746511"
     inkscape:cy="187.34428"
     inkscape:window-width="1920"
     inkscape:window-height="1027"
     inkscape:window-x="2560"
     inkscape:window-y="30"
     inkscape:window-maximized="1"
     inkscape:current-layer="text236"
     showguides="true">
    <sodipodi:guide
       position="-179.2521,97.334147"
       orientation="1,0"
       id="guide1818"
       inkscape:locked="false" />
  </sodipodi:namedview>
  <style>
    #layer1 {
      perspective: 800px
    }
    #bltr {
      transform-origin: 88px 105px;
      animation-name: cckw;
      animation-duration: 3s;
      animation-iteration-count: infinite;
    }
    #tlbr {
      transform-origin: 88px 105px;
      animation-name: ckw;
      animation-duration: 03s;
      animation-iteration-count: infinite;
    }

    @keyframes ckw {

      0% {
        transform: rotate3d(1, 2, 1, -45deg);
      }
      50% {
          transform: rotate3d(0, 0, 1, -45deg);
      }
      100% {
          transform: rotate3d(0, 0, 0, 0deg);
      }
    }

    @keyframes cckw {

      0% {
        transform: rotate3d(0, 10, 0, 300deg);
      }
      50% {
        transform: rotate3d(0, 0, 1, 45deg);
      }
      100% {
        transform: rotate3d(0, 0, 0, 0deg);
      }
    }
  </style>
  <defs
     id="defs2" />
  <g
     inkscape:label="Слой 1"
     inkscape:groupmode="layer"
     id="layer1"
     transform="translate(-68.126785,-85.868242)">
    <g
       aria-label="DEXIF"
       id="text236"
       style="font-size:25.4px;line-height:1.25;stroke-width:0.264583"
       transform="translate(-2.9398827,-2.8928708)">
      <path
         d="m 90.724493,105.34769 6.42441,9.64678 h -4.97334 l -4.328415,-6.52139 -4.291211,6.52139 h -4.998145 l 6.424414,-9.64678 -6.176367,-9.214097 h 4.985742 l 4.055567,6.113517 4.043165,-6.113517 h 5.01055 z"
         style="font-weight:bold;-inkscape-font-specification:'sans-serif Bold';display:none;stroke-linecap:round;stroke-linejoin:round;paint-order:normal"
         id="path400"
         sodipodi:nodetypes="ccccccccccccc"
         inkscape:label="XOLD" />
      <path
         d="m 100.99521,96.132457 1.01555,0.0044 v 18.862503 l -1.10518,-0.0189 -3.680653,-3.72897 0.01256,-11.24741 z"
         style="font-weight:bold;-inkscape-font-specification:'sans-serif Bold';display:none;stroke-linecap:round;stroke-linejoin:round;paint-order:normal"
         id="path402"
         sodipodi:nodetypes="ccccccc"
         inkscape:label="I"
         sodipodi:insensitive="true" />
      <path
         d="m 101.01651,96.124612 1.01555,0.0044 -0.0141,6.367948 -4.76427,-0.008 0.0051,-2.492868 z"
         style="font-weight:bold;font-size:25.4px;line-height:1.25;-inkscape-font-specification:'sans-serif Bold';display:inline;fill:#ffffff;fill-opacity:1;stroke-width:0.264583;stroke-linecap:round;stroke-linejoin:round;paint-order:normal;stroke:none"
         id="path402-3"
         sodipodi:nodetypes="cccccc"
         inkscape:label="Idot"
         sodipodi:insensitive="true" />
      <path
         d="m 102.02527,103.51585 0.007,11.47566 -1.10518,-0.0189 -3.680647,-3.72897 0.02859,-7.72335 z"
         style="font-weight:bold;font-size:25.4px;line-height:1.25;-inkscape-font-specification:'sans-serif Bold';display:inline;fill:#ffffff;fill-opacity:1;stroke-width:0.264583;stroke-linecap:round;stroke-linejoin:round;paint-order:normal;stroke:none"
         id="path588"
         sodipodi:nodetypes="cccccc"
         inkscape:label="Istick"
         sodipodi:insensitive="true" />
      <path
         d="m 103.02526,96.141301 h 11.29853 l -1.05833,3.3085 h -5.4653 v 4.070559 l 4.23181,-0.007 -1.12901,3.61334 -3.1028,0.002 v 7.86462 h -4.7749 z"
         style="font-weight:bold;-inkscape-font-specification:'sans-serif Bold';display:inline;fill:#ffffff;fill-opacity:1;stroke-linecap:round;stroke-linejoin:round;paint-order:normal;stroke:none"
         id="path404"
         sodipodi:nodetypes="ccccccccccc"
         inkscape:label="F" />
      <path
         style="display:inline;fill:#ffffff;fill-opacity:1;stroke:none;stroke-width:0.264583px;stroke-linecap:round;stroke-linejoin:round;stroke-opacity:1;paint-order:normal"
         d="m 61.094594,96.262938 c 0,0 11.93824,-1.715877 11.93824,9.082982 0,10.79886 -11.941607,9.52545 -11.941607,9.52545 l 0.009,-4.24268 c 0,0 7.592122,0.58971 7.592122,-5.31171 0,-5.901407 -7.625681,-4.70575 -7.625681,-4.70575 z"
         id="path672"
         sodipodi:nodetypes="czcczcc"
         inkscape:label="D" />
      <path
         style="font-size:25.4px;line-height:1.25;fill:#ffffff;fill-opacity:1;stroke:none;stroke-width:0.264583px;stroke-linecap:round;stroke-linejoin:round;stroke-opacity:1;paint-order:normal"
         d="m 73.041298,111.31957 c 0,0 -1.594806,2.83364 -4.004369,3.55028 2.6517,0.0352 5.312286,0.0387 5.312286,0.0387 l 3.540661,-3.55605 c 0,0 -4.416698,-0.033 -4.848578,-0.033 z"
         id="path1228-6"
         sodipodi:nodetypes="cccccc"
         inkscape:label="EB" />
      <path
         style="display:inline;fill:#ffffff;fill-opacity:1;stroke:none;stroke-width:0.264583px;stroke-linecap:round;stroke-linejoin:round;stroke-opacity:1;paint-order:normal"
         d="m 70.632005,96.273418 3.695,0.04865 3.577829,3.500701 -4.860346,0.02005 c 0,0 -1.590421,-2.852535 -3.999984,-3.569175 z"
         id="path1228"
         sodipodi:nodetypes="cccccc"
         inkscape:label="ET" />
      <path
         style="fill:#ffffff;fill-opacity:1;stroke:none;stroke-width:0.264583px;stroke-linecap:round;stroke-linejoin:round;stroke-opacity:1;paint-order:normal"
         d="m 74.112711,103.60419 c 0,0 0.412641,1.79493 -0.01204,3.69072 0.05301,-0.0213 7.795036,0.004 7.795036,0.004 l 1.803927,-1.74053 -1.989058,-1.90408 z"
         id="path1230"
         sodipodi:nodetypes="cccccc"
         inkscape:label="EM" />
      <path
         id="path300-1-2"
         style="font-size:25.4px;line-height:1.25;fill:none;stroke:#ffffff;stroke-width:4;stroke-linecap:round;stroke-linejoin:round;stroke-dasharray:none;stroke-opacity:1"
         d="m 111.39591,116.12189 c 0.47527,0.94502 0.80451,1.98367 0.95448,3.09065 0.72696,5.36586 -3.03362,10.30507 -8.39948,11.03202 -5.365832,0.72695 -10.305009,-3.03363 -11.031963,-8.39949 -0.157154,-1.16 -0.104587,-2.30005 0.128581,-3.38193"
         sodipodi:nodetypes="csssc"
         inkscape:label="BR"
         inkscape:transform-center-x="-0.027109478"
         inkscape:transform-center-y="2.7117844" />
      <path
         id="path300-1-2-7"
         style="font-size:25.4px;line-height:1.25;fill:none;stroke:#ffffff;stroke-width:4;stroke-linecap:round;stroke-linejoin:round;stroke-dasharray:none;stroke-opacity:1"
         d="m 82.737711,119.64238 c 0.526543,5.38922 -3.415436,10.1849 -8.804655,10.71144 -5.389189,0.52654 -10.184834,-3.41544 -10.711377,-8.80466 -0.107083,-1.096 -0.02935,-2.16745 0.20778,-3.18344"
         sodipodi:nodetypes="cssc"
         inkscape:label="BL"
         inkscape:transform-center-x="0.017721431"
         inkscape:transform-center-y="3.8716714" />
      <path
         id="path300-1-2-7-0"
         style="font-size:25.4px;line-height:1.25;fill:none;stroke:#ffffff;stroke-width:4;stroke-linecap:round;stroke-linejoin:round;stroke-dasharray:none;stroke-opacity:1"
         d="m 82.740643,91.567347 c 0.503842,-5.391389 -3.458298,-10.170425 -8.849686,-10.674267 -5.391359,-0.503839 -10.17036,3.45831 -10.674202,8.849699 -0.104463,1.117809 -0.01695,2.209295 0.23548,3.241814"
         sodipodi:nodetypes="cssc"
         inkscape:label="TL"
         inkscape:transform-center-x="0.01408638"
         inkscape:transform-center-y="-3.6708728" />
      <path
         id="path300-1-2-7-0-9"
         style="font-size:25.4px;line-height:1.25;fill:none;stroke:#ffffff;stroke-width:4;stroke-linecap:round;stroke-linejoin:round;stroke-dasharray:none;stroke-opacity:1"
         d="m 112.10192,92.967852 c 0.24957,-0.988569 0.34796,-2.033214 0.27078,-3.105763 -0.38865,-5.400914 -5.08202,-9.464166 -10.48294,-9.075516 -5.400845,0.388644 -9.464061,5.082018 -9.075412,10.482932"
         sodipodi:nodetypes="cssc"
         inkscape:label="TR"
         inkscape:transform-center-x="0.0010569105"
         inkscape:transform-center-y="-3.6098151" />
      <path
         style="fill:none;fill-opacity:1;stroke:#ff0000;stroke-width:4;stroke-linecap:round;stroke-linejoin:round;stroke-dasharray:none;stroke-opacity:1"
         d="M 72.969226,120.49803 102.65352,90.583545"
         id="bltr"
         inkscape:label="BLTR" />
      <path
         style="fill:none;fill-opacity:1;stroke:#ff0000;stroke-width:4;stroke-linecap:round;stroke-linejoin:round;stroke-dasharray:none;stroke-opacity:1"
         d="M 72.966055,90.677299 102.67142,120.41112"
         id="tlbr"
         inkscape:label="TLBR" />
    </g>
  </g>
</svg>
